<mxfile host="www.draw.io" modified="2019-12-26T19:22:56.957Z" agent="Mozilla/5.0 (Windows NT 6.1; Win64; x64) AppleWebKit/537.36 (KHTML, like Gecko) Chrome/79.0.3945.88 Safari/537.36" etag="c-Lb0MBnhCcKagn5Cn6M" version="12.4.3" type="github" pages="1">
  <diagram id="HDyUL4YgTAdQPuVXqkOQ" name="Page-1">
    <mxGraphModel dx="1422" dy="762" grid="1" gridSize="10" guides="1" tooltips="1" connect="1" arrows="1" fold="1" page="1" pageScale="1" pageWidth="850" pageHeight="1100" math="0" shadow="0">
      <root>
        <mxCell id="0"/>
        <mxCell id="1" parent="0"/>
        <mxCell id="Ia_hDIydhNuif1PSzXbj-9" value="" style="rounded=1;whiteSpace=wrap;html=1;fontStyle=1" vertex="1" parent="1">
          <mxGeometry x="250.5" y="70" width="69.5" height="170" as="geometry"/>
        </mxCell>
        <mxCell id="Ia_hDIydhNuif1PSzXbj-1" value="&lt;font style=&quot;font-size: 14px&quot;&gt;A&lt;/font&gt;" style="whiteSpace=wrap;html=1;aspect=fixed;fontStyle=1" vertex="1" parent="1">
          <mxGeometry x="160" y="90" width="40" height="40" as="geometry"/>
        </mxCell>
        <mxCell id="Ia_hDIydhNuif1PSzXbj-2" value="&lt;font style=&quot;font-size: 14px&quot;&gt;&lt;span&gt;B&lt;/span&gt;&lt;/font&gt;" style="whiteSpace=wrap;html=1;aspect=fixed;fontStyle=1" vertex="1" parent="1">
          <mxGeometry x="265.25" y="90" width="40" height="40" as="geometry"/>
        </mxCell>
        <mxCell id="Ia_hDIydhNuif1PSzXbj-3" value="&lt;font style=&quot;font-size: 14px&quot;&gt;C&lt;/font&gt;" style="whiteSpace=wrap;html=1;aspect=fixed;fontStyle=1" vertex="1" parent="1">
          <mxGeometry x="370" y="90" width="40" height="40" as="geometry"/>
        </mxCell>
        <mxCell id="Ia_hDIydhNuif1PSzXbj-5" value="&lt;font style=&quot;font-size: 14px&quot;&gt;&lt;span&gt;B&#39;&lt;/span&gt;&lt;/font&gt;" style="whiteSpace=wrap;html=1;aspect=fixed;fontStyle=1;dashed=1;" vertex="1" parent="1">
          <mxGeometry x="265.25" y="190" width="40" height="40" as="geometry"/>
        </mxCell>
        <mxCell id="Ia_hDIydhNuif1PSzXbj-10" value="" style="endArrow=classic;html=1;" edge="1" parent="1">
          <mxGeometry width="50" height="50" relative="1" as="geometry">
            <mxPoint x="200" y="109.5" as="sourcePoint"/>
            <mxPoint x="250" y="110" as="targetPoint"/>
          </mxGeometry>
        </mxCell>
        <mxCell id="Ia_hDIydhNuif1PSzXbj-11" value="&lt;font style=&quot;font-size: 14px&quot;&gt;Scaling&lt;/font&gt;" style="endArrow=classic;startArrow=classic;html=1;" edge="1" parent="1">
          <mxGeometry width="50" height="50" relative="1" as="geometry">
            <mxPoint x="284.75" y="190" as="sourcePoint"/>
            <mxPoint x="284.75" y="130" as="targetPoint"/>
          </mxGeometry>
        </mxCell>
        <mxCell id="Ia_hDIydhNuif1PSzXbj-12" value="Delay time" style="shape=image;html=1;verticalAlign=top;verticalLabelPosition=bottom;labelBackgroundColor=#ffffff;imageAspect=0;aspect=fixed;image=https://cdn2.iconfinder.com/data/icons/essential-web-1-1/50/hourlass-waiting-time-delay-minute-128.png;dashed=1;" vertex="1" parent="1">
          <mxGeometry x="270.25" y="260" width="30" height="30" as="geometry"/>
        </mxCell>
        <mxCell id="Ia_hDIydhNuif1PSzXbj-13" value="" style="rounded=1;whiteSpace=wrap;html=1;fontStyle=1" vertex="1" parent="1">
          <mxGeometry x="470" y="70" width="69.5" height="170" as="geometry"/>
        </mxCell>
        <mxCell id="Ia_hDIydhNuif1PSzXbj-14" value="&lt;font style=&quot;font-size: 14px&quot;&gt;&lt;span&gt;D&lt;/span&gt;&lt;/font&gt;" style="whiteSpace=wrap;html=1;aspect=fixed;fontStyle=1" vertex="1" parent="1">
          <mxGeometry x="484.75" y="90" width="40" height="40" as="geometry"/>
        </mxCell>
        <mxCell id="Ia_hDIydhNuif1PSzXbj-15" value="&lt;font style=&quot;font-size: 14px&quot;&gt;&lt;span&gt;D&#39;&lt;/span&gt;&lt;/font&gt;" style="whiteSpace=wrap;html=1;aspect=fixed;fontStyle=1;dashed=1;" vertex="1" parent="1">
          <mxGeometry x="484.75" y="190" width="40" height="40" as="geometry"/>
        </mxCell>
        <mxCell id="Ia_hDIydhNuif1PSzXbj-16" value="&lt;font style=&quot;font-size: 14px&quot;&gt;Scaling&lt;/font&gt;" style="endArrow=classic;startArrow=classic;html=1;" edge="1" parent="1">
          <mxGeometry width="50" height="50" relative="1" as="geometry">
            <mxPoint x="504.25" y="190" as="sourcePoint"/>
            <mxPoint x="504.25" y="130" as="targetPoint"/>
          </mxGeometry>
        </mxCell>
        <mxCell id="Ia_hDIydhNuif1PSzXbj-17" value="Delay time" style="shape=image;html=1;verticalAlign=top;verticalLabelPosition=bottom;labelBackgroundColor=#ffffff;imageAspect=0;aspect=fixed;image=https://cdn2.iconfinder.com/data/icons/essential-web-1-1/50/hourlass-waiting-time-delay-minute-128.png;dashed=1;" vertex="1" parent="1">
          <mxGeometry x="489.75" y="260" width="30" height="30" as="geometry"/>
        </mxCell>
        <mxCell id="Ia_hDIydhNuif1PSzXbj-18" value="" style="endArrow=classic;html=1;" edge="1" parent="1">
          <mxGeometry width="50" height="50" relative="1" as="geometry">
            <mxPoint x="320" y="109.5" as="sourcePoint"/>
            <mxPoint x="370" y="110" as="targetPoint"/>
          </mxGeometry>
        </mxCell>
        <mxCell id="Ia_hDIydhNuif1PSzXbj-20" value="" style="endArrow=classic;html=1;entryX=0;entryY=0.235;entryDx=0;entryDy=0;entryPerimeter=0;" edge="1" parent="1" target="Ia_hDIydhNuif1PSzXbj-13">
          <mxGeometry width="50" height="50" relative="1" as="geometry">
            <mxPoint x="410" y="109.5" as="sourcePoint"/>
            <mxPoint x="460" y="110" as="targetPoint"/>
          </mxGeometry>
        </mxCell>
        <mxCell id="Ia_hDIydhNuif1PSzXbj-21" value="&lt;font style=&quot;font-size: 15px&quot;&gt;Latency introduced by flows migration was multiply across the service chain&lt;/font&gt;" style="text;html=1;align=center;verticalAlign=middle;resizable=0;points=[];;autosize=1;" vertex="1" parent="1">
          <mxGeometry x="130" y="360" width="520" height="20" as="geometry"/>
        </mxCell>
      </root>
    </mxGraphModel>
  </diagram>
</mxfile>
